<svg width="272" height="88" viewBox="0 0 272 88" fill="none" xmlns="http://www.w3.org/2000/svg">
<path d="M82.4578 19.9763H72.0562V39.5051H82.4578C88.938 39.5051 92.6634 36.7503 92.6634 29.7407C92.6634 22.7311 88.938 19.9763 82.4578 19.9763ZM81.5657 23.8683C85.4087 23.8683 87.6537 25.535 87.6537 29.7309C87.6537 33.9268 85.4087 35.6032 81.5657 35.6032H76.6247V23.8683H81.5657ZM112.32 39.5051H117.339L108.506 19.9763H102.712L93.8398 39.5051H98.82L100.447 35.7601H110.663L112.32 39.5051ZM102.075 32.0543L105.506 24.1821H105.643L109.075 32.0543H102.075ZM136.917 31.7014V31.5348C139.27 30.9956 141.162 29.6623 141.162 26.0643C141.162 21.9468 139.142 19.9763 134.289 19.9763H120.966V39.5051H125.535V32.3485H132.201L136.348 39.5051H141.593L136.917 31.7014ZM133.505 28.6231H125.535V23.9566H133.505C135.309 23.9566 136.084 24.7016 136.084 26.2898C136.084 27.878 135.299 28.6231 133.505 28.6231ZM163.406 39.5051V35.5836H150.25V19.9763H145.681V39.5051H163.406ZM183.16 19.9763H177.759L172.082 28.4368L166.465 19.9763H160.995L169.779 32.5837V39.5051H174.376V32.5641L183.16 19.9763ZM85.6244 54.3673H90.7615C90.6046 49.3577 86.3008 47.9067 80.8696 47.9067C75.3894 47.9067 71.3504 49.4263 71.3504 53.9654C71.3504 57.5829 73.6346 58.9848 77.0953 59.4358L83.2323 60.2397C84.8793 60.4553 86.0459 60.9161 86.0557 62.5043C86.0656 64.1513 84.2813 64.9748 81.1834 64.9748C78.2717 64.9748 76.0659 64.3376 75.9286 61.4455H70.7817C70.9582 67.1316 75.1149 68.5629 81.0167 68.5629C87.2518 68.5629 91.3889 67.1512 91.3889 62.1808C91.3889 58.328 89.0949 56.8378 85.644 56.4163L79.0168 55.5928C77.4874 55.4065 76.5463 54.9653 76.5463 53.6713C76.5463 52.1909 78.0462 51.436 80.7422 51.436C83.4284 51.4458 85.4969 52.0635 85.6244 54.3673ZM106.349 47.9067C99.6338 47.9067 94.8594 51.2302 94.8594 58.2397C94.8594 65.2493 99.6436 68.5727 106.349 68.5727C113.065 68.5727 117.839 65.2493 117.839 58.2397C117.839 51.2302 113.055 47.9067 106.349 47.9067ZM106.349 64.5827C102.349 64.5827 99.869 62.3867 99.869 58.2397C99.869 54.0928 102.349 51.8968 106.349 51.8968C110.349 51.8968 112.829 54.0928 112.829 58.2397C112.829 62.3867 110.349 64.5827 106.349 64.5827ZM139.407 68.0041V64.0827H126.251V48.4754H121.682V68.0041H139.407ZM158.446 48.4754V59.9554C158.446 63.4258 156.25 64.6121 152.995 64.6121C149.74 64.6121 147.544 63.4258 147.544 59.9554V48.4754H142.975V60.0142C142.975 66.4355 147.005 68.5629 152.995 68.5629C158.985 68.5629 163.014 66.4355 163.014 60.0142V48.4754H158.446ZM186.641 48.4754H167.132V52.436H174.602V68.0041H179.17V52.436H186.641V48.4754ZM195.317 68.0041V48.4754H190.748V68.0041H195.317ZM211.297 47.9067C204.581 47.9067 199.807 51.2302 199.807 58.2397C199.807 65.2493 204.591 68.5727 211.297 68.5727C218.012 68.5727 222.787 65.2493 222.787 58.2397C222.787 51.2302 218.012 47.9067 211.297 47.9067ZM211.297 64.5827C207.297 64.5827 204.817 62.3867 204.817 58.2397C204.817 54.0928 207.297 51.8968 211.297 51.8968C215.297 51.8968 217.777 54.0928 217.777 58.2397C217.777 62.3867 215.297 64.5827 211.297 64.5827ZM243.041 48.4754V61.8867H242.913L232.678 48.4754H227.286V68.0041H231.649V54.3869H231.786L242.188 68.0041H247.423V48.4754H243.041ZM266.217 54.3673H271.354C271.197 49.3577 266.893 47.9067 261.462 47.9067C255.982 47.9067 251.943 49.4263 251.943 53.9654C251.943 57.5829 254.227 58.9848 257.697 59.4358L263.834 60.2397C265.481 60.4553 266.648 60.9161 266.658 62.5043C266.668 64.1513 264.883 64.9748 261.785 64.9748C258.874 64.9748 256.668 64.3376 256.531 61.4455H251.394C251.57 67.1316 255.727 68.5629 261.629 68.5629C267.864 68.5629 272.001 67.1512 272.001 62.1808C272.001 58.328 269.707 56.8378 266.256 56.4163L259.629 55.5928C258.099 55.4065 257.158 54.9653 257.158 53.6713C257.158 52.1909 258.658 51.436 261.354 51.436C264.03 51.4458 266.099 52.0635 266.217 54.3673Z" fill="#112B6B"/>
<path d="M40.4413 67.5615H36.3936V72.9585H40.4413V67.5615Z" fill="#FC7F2B"/>
<path d="M52.5663 6.29761H48.5186V23.6045H52.5663V6.29761Z" fill="#FC7F2B"/>
<path d="M4.04771 14.1565H0V23.5845H4.04771V14.1565Z" fill="#FC7F2B"/>
<path d="M16.1737 67.5615H12.126V79.0217H16.1737V67.5615Z" fill="#FC7F2B"/>
<path d="M4.04771 28.9819H0V62.1798H4.04771V28.9819Z" fill="#FC7F2B"/>
<path d="M52.5663 28.9819H48.5186V62.1798H52.5663V28.9819Z" fill="#FC7F2B"/>
<path d="M28.3143 67.5615H24.2666V88H28.3143V67.5615Z" fill="#FC7F2B"/>
<path d="M16.1737 8.5459H12.126V23.604H16.1737V8.5459Z" fill="#FC7F2B"/>
<path d="M40.4413 14.1565H36.3936V23.5845H40.4413V14.1565Z" fill="#FC7F2B"/>
<path d="M28.3143 0H24.2666V23.5867H28.3143V0Z" fill="#FC7F2B"/>
<path d="M28.2987 50.5697V56.0666L35.7772 58.9317L34.3281 62.7129L26.2833 59.6313L18.2551 62.7129L16.7894 58.9317L24.2679 56.0666V50.5697L16.856 46.522V33.0296H8.76123V28.9819H20.8868V43.8902H31.6798V28.9819H43.8054V33.0296H35.7272V46.522L28.2987 50.5697Z" fill="#112B6B"/>
</svg>
